<svg width="1471" height="325" viewBox="0 0 1471 325" fill="none" xmlns="http://www.w3.org/2000/svg">
<circle cx="125" cy="163" r="125" fill="#FF9900"/>
<path d="M62 258.5C59.1667 258.5 56.9167 257.667 55.25 256C53.5833 254.167 52.75 251.667 52.75 248.5V150.75C52.75 128.083 59.0833 110.417 71.75 97.75C84.5833 84.9167 102.333 78.5 125 78.5C147.5 78.5 165.167 84.9167 178 97.75C190.833 110.583 197.25 128.25 197.25 150.75V248.5C197.25 251.667 196.417 254.167 194.75 256C193.083 257.667 190.75 258.5 187.75 258.5C184.917 258.5 182.583 257.667 180.75 256C179.083 254.167 178.25 251.667 178.25 248.5V192.25H71.5V248.5C71.5 251.667 70.6667 254.167 69 256C67.3333 257.667 65 258.5 62 258.5ZM178.25 176.75V150C178.25 132.167 173.667 118.5 164.5 109C155.333 99.3333 142.167 94.5 125 94.5C107.667 94.5 94.4167 99.25 85.25 108.75C76.0833 118.25 71.5 132 71.5 150V176.75H178.25Z" fill="white"/>
<path d="M206.75 258.5C203.917 258.5 201.667 257.667 200 256C198.5 254.167 197.75 251.667 197.75 248.5V141C197.75 137.833 198.5 135.417 200 133.75C201.5 131.917 203.75 131 206.75 131C209.583 131 211.75 131.917 213.25 133.75C214.917 135.417 215.75 137.833 215.75 141V155.75C221.917 147.583 229.333 141.417 238 137.25C246.833 133.083 256.5 131 267 131C282.833 131 295 135.417 303.5 144.25C312.167 153.083 316.5 165.75 316.5 182.25V248.5C316.5 251.667 315.667 254.167 314 256C312.333 257.667 310.083 258.5 307.25 258.5C304.25 258.5 302 257.667 300.5 256C299 254.167 298.25 251.667 298.25 248.5V182.25C298.25 158.583 287.083 146.75 264.75 146.75C250.083 146.75 238.25 151.083 229.25 159.75C220.417 168.417 216 179.917 216 194.25V248.5C216 251.5 215.167 253.917 213.5 255.75C212 257.583 209.75 258.5 206.75 258.5ZM401.582 258.5C385.249 258.5 372.415 253.833 363.082 244.5C353.915 235.167 349.332 222.167 349.332 205.5V141C349.332 137.833 350.165 135.417 351.832 133.75C353.499 131.917 355.749 131 358.582 131C361.415 131 363.582 131.917 365.082 133.75C366.749 135.417 367.582 137.833 367.582 141V205.5C367.582 217.333 370.749 226.5 377.082 233C383.415 239.5 392.249 242.75 403.582 242.75C412.582 242.75 420.582 240.75 427.582 236.75C434.582 232.75 439.999 227.167 443.832 220C447.832 212.833 449.832 204.583 449.832 195.25V141C449.832 137.833 450.582 135.417 452.082 133.75C453.749 131.917 456.082 131 459.082 131C461.915 131 464.082 131.917 465.582 133.75C467.249 135.417 468.082 137.833 468.082 141V248.5C468.082 251.667 467.249 254.167 465.582 256C464.082 257.667 461.915 258.5 459.082 258.5C456.082 258.5 453.749 257.583 452.082 255.75C450.582 253.917 449.832 251.5 449.832 248.5V233.75C443.665 241.75 436.499 247.917 428.332 252.25C420.165 256.417 411.249 258.5 401.582 258.5ZM512.414 258.5C509.581 258.5 507.331 257.667 505.664 256C504.164 254.167 503.414 251.667 503.414 248.5V141C503.414 137.833 504.164 135.417 505.664 133.75C507.164 131.917 509.414 131 512.414 131C515.247 131 517.414 131.917 518.914 133.75C520.581 135.417 521.414 137.833 521.414 141V155.75C527.581 147.583 534.997 141.417 543.664 137.25C552.497 133.083 562.164 131 572.664 131C588.497 131 600.664 135.417 609.164 144.25C617.831 153.083 622.164 165.75 622.164 182.25V248.5C622.164 251.667 621.331 254.167 619.664 256C617.997 257.667 615.747 258.5 612.914 258.5C609.914 258.5 607.664 257.667 606.164 256C604.664 254.167 603.914 251.667 603.914 248.5V182.25C603.914 158.583 592.747 146.75 570.414 146.75C555.747 146.75 543.914 151.083 534.914 159.75C526.081 168.417 521.664 179.917 521.664 194.25V248.5C521.664 251.5 520.831 253.917 519.164 255.75C517.664 257.583 515.414 258.5 512.414 258.5ZM716.746 258.5C703.413 258.5 691.663 255.917 681.496 250.75C671.329 245.417 663.496 237.917 657.996 228.25C652.496 218.583 649.746 207.333 649.746 194.5C649.746 181.833 652.496 170.75 657.996 161.25C663.496 151.583 671.329 144.167 681.496 139C691.663 133.667 703.413 131 716.746 131C729.246 131 740.079 132.75 749.246 136.25C758.413 139.75 765.663 144.917 770.996 151.75C772.329 153.583 772.996 155.333 772.996 157C772.996 159.5 771.746 161.75 769.246 163.75C768.079 164.75 766.579 165.25 764.746 165.25C761.913 165.25 759.246 164 756.746 161.5C747.913 151.667 734.579 146.75 716.746 146.75C701.246 146.75 689.246 150.917 680.746 159.25C672.413 167.417 668.246 179.167 668.246 194.5C668.246 209.667 672.496 221.5 680.996 230C689.496 238.5 701.413 242.75 716.746 242.75C725.246 242.75 733.079 241.5 740.246 239C747.413 236.333 753.329 232.583 757.996 227.75C760.829 224.917 763.496 223.5 765.996 223.5C767.496 223.5 769.163 224.167 770.996 225.5C773.329 227.5 774.496 229.667 774.496 232C774.496 234.167 773.579 236 771.746 237.5C763.579 244.833 755.079 250.167 746.246 253.5C737.413 256.833 727.579 258.5 716.746 258.5ZM816.469 104.5C812.802 104.5 809.635 103.333 806.969 101C804.469 98.5 803.219 95.5 803.219 92C803.219 88.5 804.469 85.5 806.969 83C809.635 80.5 812.802 79.25 816.469 79.25C820.135 79.25 823.302 80.5833 825.969 83.25C828.802 85.75 830.219 88.6667 830.219 92C830.219 95.3333 828.802 98.25 825.969 100.75C823.302 103.25 820.135 104.5 816.469 104.5ZM816.469 258.5C813.635 258.5 811.385 257.667 809.719 256C808.219 254.167 807.469 251.667 807.469 248.5V141C807.469 137.833 808.219 135.417 809.719 133.75C811.385 131.917 813.635 131 816.469 131C819.469 131 821.719 131.917 823.219 133.75C824.885 135.417 825.719 137.833 825.719 141V248.5C825.719 251.667 824.885 254.167 823.219 256C821.719 257.667 819.469 258.5 816.469 258.5ZM911.219 258.5C894.885 258.5 882.052 254.917 872.719 247.75C863.552 240.583 858.969 230.667 858.969 218C858.969 205.5 863.802 195.583 873.469 188.25C883.302 180.917 896.635 177.25 913.469 177.25C923.302 177.25 931.969 178.583 939.469 181.25C947.135 183.917 953.052 187.5 957.219 192V176C957.219 166.5 954.052 159.25 947.719 154.25C941.552 149.25 932.469 146.75 920.469 146.75C904.969 146.75 891.552 150.417 880.219 157.75C877.385 159.417 875.052 160.25 873.219 160.25C871.552 160.25 869.885 159.583 868.219 158.25C866.385 156.75 865.469 154.833 865.469 152.5C865.469 150 866.552 147.917 868.719 146.25C874.719 141.583 882.302 137.917 891.469 135.25C900.802 132.417 910.302 131 919.969 131C937.635 131 951.302 135 960.969 143C970.802 151 975.719 162.25 975.719 176.75V248.75C975.719 255.25 972.719 258.5 966.719 258.5C964.052 258.5 961.885 257.667 960.219 256C958.552 254.167 957.719 251.833 957.719 249V240C947.385 252.333 931.885 258.5 911.219 258.5ZM913.469 243.25C926.469 243.25 937.052 240.833 945.219 236C953.385 231 957.469 224.583 957.469 216.75C957.469 208.917 953.635 202.917 945.969 198.75C938.469 194.417 927.802 192.25 913.969 192.25C902.302 192.25 893.302 194.5 886.969 199C880.635 203.333 877.469 209.667 877.469 218C877.469 226.167 880.552 232.417 886.719 236.75C892.885 241.083 901.802 243.25 913.469 243.25ZM1018.76 258.5C1015.93 258.5 1013.68 257.667 1012.01 256C1010.51 254.167 1009.76 251.667 1009.76 248.5V141C1009.76 137.833 1010.51 135.417 1012.01 133.75C1013.51 131.917 1015.76 131 1018.76 131C1021.6 131 1023.76 131.917 1025.26 133.75C1026.93 135.417 1027.76 137.833 1027.76 141V155.75C1033.93 147.583 1041.35 141.417 1050.01 137.25C1058.85 133.083 1068.51 131 1079.01 131C1094.85 131 1107.01 135.417 1115.51 144.25C1124.18 153.083 1128.51 165.75 1128.51 182.25V248.5C1128.51 251.667 1127.68 254.167 1126.01 256C1124.35 257.667 1122.1 258.5 1119.26 258.5C1116.26 258.5 1114.01 257.667 1112.51 256C1111.01 254.167 1110.26 251.667 1110.26 248.5V182.25C1110.26 158.583 1099.1 146.75 1076.76 146.75C1062.1 146.75 1050.26 151.083 1041.26 159.75C1032.43 168.417 1028.01 179.917 1028.01 194.25V248.5C1028.01 251.5 1027.18 253.917 1025.51 255.75C1024.01 257.583 1021.76 258.5 1018.76 258.5ZM1222.34 258.5C1201.68 258.5 1185.34 252.917 1173.34 241.75C1161.51 230.417 1155.59 215 1155.59 195.5C1155.59 183.167 1158.18 172.167 1163.34 162.5C1168.68 152.667 1176.34 145 1186.34 139.5C1196.51 133.833 1208.68 131 1222.84 131C1234.84 131 1245.01 133.25 1253.34 137.75C1261.84 142.25 1269.34 148.5 1275.84 156.5L1276.09 76.25C1276.09 73.0833 1276.84 70.6667 1278.34 69C1280.01 67.1667 1282.34 66.25 1285.34 66.25C1288.18 66.25 1290.34 67.1667 1291.84 69C1293.51 70.6667 1294.34 73.0833 1294.34 76.25V248.5C1294.34 251.667 1293.51 254.167 1291.84 256C1290.34 257.667 1288.18 258.5 1285.34 258.5C1282.51 258.5 1280.26 257.667 1278.59 256C1276.93 254.167 1276.09 251.667 1276.09 248.5V232.5C1270.26 241 1262.76 247.5 1253.59 252C1244.59 256.333 1234.18 258.5 1222.34 258.5ZM1223.84 242.75C1240.01 242.75 1252.76 238.5 1262.09 230C1271.43 221.333 1276.09 209.583 1276.09 194.75C1276.09 184.917 1273.68 176.417 1268.84 169.25C1264.18 161.917 1257.84 156.333 1249.84 152.5C1242.01 148.667 1233.43 146.75 1224.09 146.75C1208.43 146.75 1196.18 151.25 1187.34 160.25C1178.51 169.083 1174.09 180.833 1174.09 195.5C1174.09 211.167 1178.43 223 1187.09 231C1195.76 238.833 1208.01 242.75 1223.84 242.75ZM1391.34 258.5C1376.84 258.5 1364.43 255.583 1354.09 249.75C1343.76 243.917 1335.93 236.167 1330.59 226.5C1325.43 216.667 1322.84 206.083 1322.84 194.75C1322.84 183.417 1325.43 172.917 1330.59 163.25C1335.93 153.417 1343.76 145.583 1354.09 139.75C1364.43 133.917 1376.84 131 1391.34 131C1405.84 131 1418.18 133.917 1428.34 139.75C1438.68 145.583 1446.43 153.417 1451.59 163.25C1456.93 172.917 1459.59 183.417 1459.59 194.75C1459.59 206.083 1456.93 216.667 1451.59 226.5C1446.43 236.167 1438.68 243.917 1428.34 249.75C1418.18 255.583 1405.84 258.5 1391.34 258.5ZM1391.34 242.75C1406.34 242.75 1418.34 238.5 1427.34 230C1436.51 221.5 1441.09 209.75 1441.09 194.75C1441.09 179.75 1436.51 168 1427.34 159.5C1418.34 151 1406.34 146.75 1391.34 146.75C1376.18 146.75 1364.01 151 1354.84 159.5C1345.84 168 1341.34 179.75 1341.34 194.75C1341.34 209.75 1345.84 221.5 1354.84 230C1364.01 238.5 1376.18 242.75 1391.34 242.75Z" fill="#FF9900"/>
</svg>
